<svg width="234" height="270" viewBox="0 0 234 270" fill="none" xmlns="http://www.w3.org/2000/svg">
<path d="M47 119.821C47 129.512 39.165 137.368 29.5 137.368C19.835 137.368 12 129.512 12 119.821C12 110.13 19.835 102.274 29.5 102.274C39.165 102.274 47 110.13 47 119.821Z" fill="#FEC2C4" fill-opacity="0.3"/>
<path d="M83 60.1611C83 68.4676 76.2843 75.2014 68 75.2014C59.7157 75.2014 53 68.4676 53 60.1611C53 51.8546 59.7157 45.1208 68 45.1208C76.2843 45.1208 83 51.8546 83 60.1611Z" fill="#FEC2C4" fill-opacity="0.3"/>
<path d="M127 42.1128C127 50.4193 120.284 57.153 112 57.153C103.716 57.153 97 50.4193 97 42.1128C97 33.8062 103.716 27.0725 112 27.0725C120.284 27.0725 127 33.8062 127 42.1128Z" fill="#FEC2C4" fill-opacity="0.3"/>
<path d="M53 100.268C53 105.806 48.5228 110.295 43 110.295C37.4772 110.295 33 105.806 33 100.268C33 94.7308 37.4772 90.2416 43 90.2416C48.5228 90.2416 53 94.7308 53 100.268Z" fill="#FEC2C4" fill-opacity="0.3"/>
<path d="M77 85.2282C77 93.5347 70.2843 100.268 62 100.268C53.7157 100.268 47 93.5347 47 85.2282C47 76.9217 53.7157 70.1879 62 70.1879C70.2843 70.1879 77 76.9217 77 85.2282Z" fill="#FEC2C4" fill-opacity="0.3"/>
<path d="M62 172.462C62 180.768 55.2843 187.502 47 187.502C38.7157 187.502 32 180.768 32 172.462C32 164.155 38.7157 157.421 47 157.421C55.2843 157.421 62 164.155 62 172.462Z" fill="#FEC2C4" fill-opacity="0.3"/>
<path d="M234 75.2014C234 83.5079 227.284 90.2416 219 90.2416C210.716 90.2416 204 83.5079 204 75.2014C204 66.8948 210.716 60.1611 219 60.1611C227.284 60.1611 234 66.8948 234 75.2014Z" fill="#FEC2C4" fill-opacity="0.3"/>
<path d="M52 149.901C52 162.361 41.9264 172.462 29.5 172.462C17.0736 172.462 7 162.361 7 149.901C7 137.442 17.0736 127.341 29.5 127.341C41.9264 127.341 52 137.442 52 149.901Z" fill="#FEC2C4" fill-opacity="0.3"/>
<path d="M219 47.1262C219 58.2015 210.046 67.1799 199 67.1799C187.954 67.1799 179 58.2015 179 47.1262C179 36.0508 187.954 27.0725 199 27.0725C210.046 27.0725 219 36.0508 219 47.1262Z" fill="#FEC2C4" fill-opacity="0.3"/>
<path d="M148 27.5738C148 37.2648 140.165 45.1208 130.5 45.1208C120.835 45.1208 113 37.2648 113 27.5738C113 17.8829 120.835 10.0268 130.5 10.0268C140.165 10.0268 148 17.8829 148 27.5738Z" fill="#FEC2C4" fill-opacity="0.3"/>
<path d="M103 22.0591C103 24.8279 100.761 27.0725 98 27.0725C95.2386 27.0725 93 24.8279 93 22.0591C93 19.2902 95.2386 17.0456 98 17.0456C100.761 17.0456 103 19.2902 103 22.0591Z" fill="#FEC2C4" fill-opacity="0.3"/>
<path d="M156 30.5819C156 34.7351 152.642 38.102 148.5 38.102C144.358 38.102 141 34.7351 141 30.5819C141 26.4286 144.358 23.0617 148.5 23.0617C152.642 23.0617 156 26.4286 156 30.5819Z" fill="#FEC2C4" fill-opacity="0.3"/>
<path d="M148 7.52014C148 11.6734 144.642 15.0403 140.5 15.0403C136.358 15.0403 133 11.6734 133 7.52014C133 3.36688 136.358 0 140.5 0C144.642 0 148 3.36688 148 7.52014Z" fill="#FEC2C4" fill-opacity="0.3"/>
<path d="M232 44.6195C232 48.7727 228.642 52.1396 224.5 52.1396C220.358 52.1396 217 48.7727 217 44.6195C217 40.4662 220.358 37.0993 224.5 37.0993C228.642 37.0993 232 40.4662 232 44.6195Z" fill="#FEC2C4" fill-opacity="0.3"/>
<path d="M15 157.923C15 162.076 11.6421 165.443 7.5 165.443C3.35786 165.443 0 162.076 0 157.923C0 153.77 3.35786 150.403 7.5 150.403C11.6421 150.403 15 153.77 15 157.923Z" fill="#FEC2C4" fill-opacity="0.3"/>
<path d="M194 18.0483C194 20.8172 191.761 23.0617 189 23.0617C186.239 23.0617 184 20.8172 184 18.0483C184 15.2795 186.239 13.0349 189 13.0349C191.761 13.0349 194 15.2795 194 18.0483Z" fill="#FEC2C4" fill-opacity="0.3"/>
<path d="M57 60.1611C57 62.9299 54.7614 65.1745 52 65.1745C49.2386 65.1745 47 62.9299 47 60.1611C47 57.3922 49.2386 55.1477 52 55.1477C54.7614 55.1477 57 57.3922 57 60.1611Z" fill="#FEC2C4" fill-opacity="0.3"/>
<path d="M29 100.268C29 103.037 26.7614 105.282 24 105.282C21.2386 105.282 19 103.037 19 100.268C19 97.4996 21.2386 95.255 24 95.255C26.7614 95.255 29 97.4996 29 100.268Z" fill="#FEC2C4" fill-opacity="0.3"/>
<path d="M17 110.295C17 113.064 14.7614 115.309 12 115.309C9.23858 115.309 7 113.064 7 110.295C7 107.526 9.23858 105.282 12 105.282C14.7614 105.282 17 107.526 17 110.295Z" fill="#FEC2C4" fill-opacity="0.3"/>
<path d="M52 53.1423C52 55.9111 49.7614 58.1557 47 58.1557C44.2386 58.1557 42 55.9111 42 53.1423C42 50.3735 44.2386 48.1289 47 48.1289C49.7614 48.1289 52 50.3735 52 53.1423Z" fill="#FEC2C4" fill-opacity="0.3"/>
<path d="M123 15.0403C123 17.8091 120.761 20.0537 118 20.0537C115.239 20.0537 113 17.8091 113 15.0403C113 12.2714 115.239 10.0268 118 10.0268C120.761 10.0268 123 12.2714 123 15.0403Z" fill="#FEC2C4" fill-opacity="0.3"/>
<path d="M193 30.5819C193 40.2728 185.165 48.1289 175.5 48.1289C165.835 48.1289 158 40.2728 158 30.5819C158 20.891 165.835 13.0349 175.5 13.0349C185.165 13.0349 193 20.891 193 30.5819Z" fill="#FEC2C4" fill-opacity="0.3"/>
<path d="M103 37.6007C103 47.2916 95.165 55.1477 85.5 55.1477C75.835 55.1477 68 47.2916 68 37.6007C68 27.9097 75.835 20.0537 85.5 20.0537C95.165 20.0537 103 27.9097 103 37.6007Z" fill="#FEC2C4" fill-opacity="0.3"/>
<path d="M165.259 229.008C174.12 225.136 184.432 229.2 188.294 238.083C192.155 246.967 188.103 257.308 179.243 261.18C170.383 265.051 160.07 260.988 156.208 252.104C152.347 243.22 156.399 232.88 165.259 229.008Z" fill="#FEC2C4" fill-opacity="0.3"/>
<path d="M96.3316 219.753C103.926 216.434 112.766 219.917 116.075 227.532C119.385 235.147 115.912 244.01 108.317 247.329C100.723 250.647 91.8834 247.165 88.5736 239.55C85.2638 231.935 88.7372 223.072 96.3316 219.753Z" fill="#FEC2C4" fill-opacity="0.3"/>
<path d="M62.2515 186.52C69.8459 183.201 78.6854 186.684 81.9952 194.299C85.305 201.913 81.8316 210.777 74.2372 214.095C66.6428 217.414 57.8033 213.931 54.4935 206.317C51.1837 198.702 54.6571 189.838 62.2515 186.52Z" fill="#FEC2C4" fill-opacity="0.3"/>
<path d="M144.986 231.305C150.049 229.092 155.942 231.414 158.149 236.491C160.355 241.567 158.04 247.476 152.977 249.688C147.914 251.901 142.021 249.579 139.814 244.503C137.608 239.426 139.923 233.517 144.986 231.305Z" fill="#FEC2C4" fill-opacity="0.3"/>
<path d="M121.647 215.253C129.241 211.935 138.081 215.417 141.39 223.032C144.7 230.647 141.227 239.51 133.633 242.829C126.038 246.147 117.199 242.665 113.889 235.05C110.579 227.435 114.052 218.572 121.647 215.253Z" fill="#FEC2C4" fill-opacity="0.3"/>
<path d="M207.395 194.189C214.989 190.87 223.828 194.353 227.138 201.968C230.448 209.583 226.975 218.446 219.38 221.765C211.786 225.083 202.946 221.601 199.637 213.986C196.327 206.371 199.8 197.508 207.395 194.189Z" fill="#FEC2C4" fill-opacity="0.3"/>
<path d="M49.7542 74.9474C57.3486 71.6288 66.1881 75.1115 69.4979 82.7262C72.8077 90.341 69.3343 99.2043 61.7399 102.523C54.1455 105.842 45.306 102.359 41.9962 94.7441C38.6864 87.1294 42.1598 78.2661 49.7542 74.9474Z" fill="#FEC2C4" fill-opacity="0.3"/>
<path d="M190.764 212.394C202.155 207.416 215.414 212.64 220.379 224.063C225.344 235.485 220.134 248.78 208.742 253.758C197.351 258.736 184.091 253.512 179.127 242.089C174.162 230.667 179.372 217.372 190.764 212.394Z" fill="#FEC2C4" fill-opacity="0.3"/>
<path d="M30.0788 99.9519C40.2047 95.527 51.9907 100.171 56.4038 110.324C60.8168 120.477 56.1856 132.294 46.0598 136.719C35.934 141.144 24.1479 136.501 19.7349 126.348C15.3218 116.195 19.953 104.377 30.0788 99.9519Z" fill="#FEC2C4" fill-opacity="0.3"/>
<path d="M40.569 173.026C49.4291 169.154 59.7419 173.217 63.6033 182.101C67.4647 190.985 63.4125 201.325 54.5523 205.197C45.6922 209.069 35.3794 205.006 31.518 196.122C27.6566 187.238 31.7089 176.897 40.569 173.026Z" fill="#FEC2C4" fill-opacity="0.3"/>
<path d="M53.5056 216.592C56.0371 215.486 58.9836 216.647 60.0869 219.185C61.1901 221.723 60.0323 224.678 57.5009 225.784C54.9694 226.89 52.0229 225.729 50.9196 223.191C49.8164 220.653 50.9742 217.698 53.5056 216.592Z" fill="#FEC2C4" fill-opacity="0.3"/>
<path d="M40.123 164.47C43.9201 162.811 48.3399 164.552 49.9948 168.36C51.6497 172.167 49.913 176.599 46.1158 178.258C42.3186 179.917 37.8989 178.176 36.244 174.369C34.5891 170.561 36.3258 166.13 40.123 164.47Z" fill="#FEC2C4" fill-opacity="0.3"/>
<path d="M22.2345 181.038C26.0317 179.378 30.4515 181.12 32.1064 184.927C33.7613 188.734 32.0246 193.166 28.2274 194.825C24.4302 196.485 20.0104 194.743 18.3556 190.936C16.7007 187.129 18.4373 182.697 22.2345 181.038Z" fill="#FEC2C4" fill-opacity="0.3"/>
<path d="M22.5932 89.004C26.3904 87.3447 30.8102 89.086 32.465 92.8934C34.1199 96.7008 32.3833 101.132 28.5861 102.792C24.7889 104.451 20.3691 102.71 18.7142 98.9024C17.0593 95.095 18.796 90.6633 22.5932 89.004Z" fill="#FEC2C4" fill-opacity="0.3"/>
<path d="M212.88 243.199C216.677 241.54 221.097 243.281 222.752 247.089C224.406 250.896 222.67 255.328 218.873 256.987C215.075 258.646 210.656 256.905 209.001 253.098C207.346 249.29 209.083 244.859 212.88 243.199Z" fill="#FEC2C4" fill-opacity="0.3"/>
<path d="M13.482 134.549C16.0134 133.443 18.96 134.603 20.0632 137.142C21.1665 139.68 20.0087 142.634 17.4772 143.741C14.9458 144.847 11.9993 143.686 10.896 141.148C9.79274 138.609 10.9505 135.655 13.482 134.549Z" fill="#FEC2C4" fill-opacity="0.3"/>
<path d="M106.719 243.652C109.251 242.546 112.197 243.707 113.3 246.245C114.404 248.783 113.246 251.738 110.714 252.844C108.183 253.95 105.236 252.789 104.133 250.251C103.03 247.713 104.188 244.758 106.719 243.652Z" fill="#FEC2C4" fill-opacity="0.3"/>
<path d="M154.575 253.365C157.106 252.259 160.053 253.42 161.156 255.958C162.259 258.496 161.102 261.451 158.57 262.557C156.039 263.663 153.092 262.502 151.989 259.964C150.886 257.426 152.043 254.471 154.575 253.365Z" fill="#FEC2C4" fill-opacity="0.3"/>
<path d="M168.536 260.389C171.068 259.283 174.014 260.444 175.118 262.982C176.221 265.521 175.063 268.475 172.532 269.581C170 270.687 167.054 269.527 165.95 266.988C164.847 264.45 166.005 261.496 168.536 260.389Z" fill="#FEC2C4" fill-opacity="0.3"/>
<path d="M102.3 251.052C104.831 249.946 107.778 251.107 108.881 253.645C109.984 256.183 108.826 259.138 106.295 260.244C103.764 261.35 100.817 260.189 99.7138 257.651C98.6105 255.113 99.7683 252.158 102.3 251.052Z" fill="#FEC2C4" fill-opacity="0.3"/>
<path d="M39.0981 201.013C41.6295 199.906 44.576 201.067 45.6793 203.606C46.7826 206.144 45.6248 209.098 43.0933 210.204C40.5619 211.311 37.6153 210.15 36.5121 207.612C35.4088 205.073 36.5666 202.119 39.0981 201.013Z" fill="#FEC2C4" fill-opacity="0.3"/>
<path d="M25.3405 130.461C34.2006 126.589 44.5135 130.652 48.3749 139.536C52.2363 148.42 48.184 158.76 39.3239 162.632C30.4638 166.504 20.151 162.441 16.2896 153.557C12.4282 144.673 16.4804 134.332 25.3405 130.461Z" fill="#FEC2C4" fill-opacity="0.3"/>
<path d="M67.7148 210.383C76.5749 206.511 86.8877 210.574 90.7491 219.458C94.6105 228.342 90.5583 238.683 81.6982 242.554C72.8381 246.426 62.5253 242.363 58.6639 233.479C54.8025 224.595 58.8547 214.255 67.7148 210.383Z" fill="#FEC2C4" fill-opacity="0.3"/>
</svg>
