<svg width="48" height="48" viewBox="0 0 48 48" fill="none" xmlns="http://www.w3.org/2000/svg">
<path d="M33.6998 0H14.2978C10.5068 0.00445516 6.87227 1.51259 4.19181 4.19351C1.51134 6.87442 0.00381774 10.5092 0 14.3002V33.7022C0.00445516 37.4932 1.51259 41.1277 4.19351 43.8082C6.87442 46.4887 10.5092 47.9962 14.3002 48H33.7022C37.4932 47.9955 41.1277 46.4874 43.8082 43.8065C46.4887 41.1256 47.9962 37.4908 48 33.6998V14.2978C47.9955 10.5068 46.4874 6.87227 43.8065 4.19181C41.1256 1.51134 37.4908 0.00381774 33.6998 0ZM43.1724 33.6998C43.1724 34.9437 42.9273 36.1755 42.4513 37.3248C41.9753 38.474 41.2775 39.5183 40.3979 40.3979C39.5183 41.2775 38.474 41.9753 37.3248 42.4513C36.1755 42.9273 34.9437 43.1724 33.6998 43.1724H14.2978C11.786 43.1717 9.37718 42.1734 7.60125 40.397C5.82532 38.6207 4.82765 36.2116 4.82765 33.6998V14.2978C4.82829 11.786 5.82657 9.37718 7.60295 7.60125C9.37934 5.82532 11.7884 4.82765 14.3002 4.82765H33.7022C36.214 4.82829 38.6228 5.82657 40.3987 7.60295C42.1747 9.37934 43.1724 11.7884 43.1724 14.3002V33.6998Z" fill="white"/>
<path d="M20.9192 16.6488V19.9536H18.5V23.9928H20.9192V36H25.892V23.9928H29.228C29.228 23.9928 29.5424 22.056 29.6936 19.9368H25.9112V17.1768C25.9112 16.7616 26.4536 16.2072 26.9912 16.2072H29.6984V12H26.0144C20.7968 12 20.9192 16.044 20.9192 16.6488Z" fill="white"/>
</svg>
