<svg width="48" height="48" viewBox="0 0 48 48" fill="none" xmlns="http://www.w3.org/2000/svg">
<path d="M44.25 12H34.8593C35.8261 10.556 36.1983 8.79469 35.8986 7.08302C35.5988 5.37136 34.6501 3.84137 33.2502 2.81186C31.8503 1.78234 30.1071 1.33271 28.3839 1.55664C26.6607 1.78057 25.0903 2.66079 24 4.0139C22.9097 2.66079 21.3393 1.78057 19.6161 1.55664C17.8929 1.33271 16.1497 1.78234 14.7498 2.81186C13.3499 3.84137 12.4012 5.37136 12.1014 7.08302C11.8017 8.79469 12.1739 10.556 13.1407 12H3.75C3.15348 12.0007 2.58158 12.238 2.15978 12.6598C1.73797 13.0816 1.50069 13.6535 1.5 14.25V44.3959C1.5 45.5561 2.50941 46.5 3.75 46.5H44.25C45.4906 46.5 46.5 45.5561 46.5 44.3959V14.25C46.4993 13.6535 46.262 13.0816 45.8402 12.6598C45.4184 12.238 44.8465 12.0007 44.25 12ZM29.25 4.5C30.2446 4.5 31.1984 4.89509 31.9016 5.59835C32.6049 6.30161 33 7.25544 33 8.25C33 9.24456 32.6049 10.1984 31.9016 10.9016C31.1984 11.6049 30.2446 12 29.25 12H25.5V8.25C25.5011 7.25578 25.8966 6.3026 26.5996 5.59958C27.3026 4.89656 28.2558 4.50112 29.25 4.5ZM15 8.25C15 7.25544 15.3951 6.30161 16.0983 5.59835C16.8016 4.89509 17.7554 4.5 18.75 4.5C19.7446 4.5 20.6984 4.89509 21.4016 5.59835C22.1049 6.30161 22.5 7.25544 22.5 8.25V12H18.75C17.7558 11.9989 16.8026 11.6034 16.0996 10.9004C15.3966 10.1974 15.0011 9.24422 15 8.25ZM4.5 43.5V24H18V43.5H4.5ZM21 43.5V24H27V43.5H21ZM43.5 43.5H30V24H43.5V43.5ZM4.5 21V15H43.5V21H4.5Z" fill="white"/>
</svg>
