<svg width="48" height="48" viewBox="0 0 48 48" fill="none" xmlns="http://www.w3.org/2000/svg">
<path d="M33.6998 0H14.2978C10.5068 0.00445516 6.87227 1.51259 4.19181 4.19351C1.51134 6.87442 0.00381774 10.5092 0 14.3002V33.7022C0.00445516 37.4932 1.51259 41.1277 4.19351 43.8082C6.87442 46.4887 10.5092 47.9962 14.3002 48H33.7022C37.4932 47.9955 41.1277 46.4874 43.8082 43.8065C46.4887 41.1256 47.9962 37.4908 48 33.6998V14.2978C47.9955 10.5068 46.4874 6.87227 43.8065 4.19181C41.1256 1.51134 37.4908 0.00381774 33.6998 0ZM43.1724 33.6998C43.1724 34.9437 42.9273 36.1755 42.4513 37.3248C41.9753 38.474 41.2775 39.5183 40.3979 40.3979C39.5183 41.2775 38.474 41.9753 37.3248 42.4513C36.1755 42.9273 34.9437 43.1724 33.6998 43.1724H14.2978C11.786 43.1717 9.37718 42.1734 7.60125 40.397C5.82532 38.6207 4.82765 36.2116 4.82765 33.6998V14.2978C4.82829 11.786 5.82657 9.37718 7.60295 7.60125C9.37934 5.82532 11.7884 4.82765 14.3002 4.82765H33.7022C36.214 4.82829 38.6228 5.82657 40.3987 7.60295C42.1747 9.37934 43.1724 11.7884 43.1724 14.3002V33.6998Z" fill="white"/>
<path d="M23.9988 11.5859C20.7085 11.591 17.5544 12.9005 15.228 15.2273C12.9016 17.5541 11.5927 20.7085 11.5883 23.9988C11.5921 27.29 12.901 30.4453 15.228 32.7727C17.555 35.1001 20.71 36.4097 24.0012 36.4141C27.2928 36.4103 30.4484 35.101 32.7759 32.7735C35.1034 30.446 36.4127 27.2904 36.4165 23.9988C36.4114 20.7076 35.1013 17.5528 32.7734 15.2263C30.4455 12.8998 27.29 11.5915 23.9988 11.5883V11.5859ZM23.9988 31.5865C21.9871 31.5865 20.0577 30.7873 18.6352 29.3648C17.2127 27.9423 16.4135 26.0129 16.4135 24.0012C16.4135 21.9895 17.2127 20.0601 18.6352 18.6376C20.0577 17.2151 21.9871 16.4159 23.9988 16.4159C26.0105 16.4159 27.9399 17.2151 29.3624 18.6376C30.7849 20.0601 31.5841 21.9895 31.5841 24.0012C31.5841 26.0129 30.7849 27.9423 29.3624 29.3648C27.9399 30.7873 26.0105 31.5865 23.9988 31.5865Z" fill="white"/>
<path d="M36.4382 14.6536C38.0807 14.6536 39.4122 13.3221 39.4122 11.6796C39.4122 10.0371 38.0807 8.70563 36.4382 8.70563C34.7957 8.70563 33.4642 10.0371 33.4642 11.6796C33.4642 13.3221 34.7957 14.6536 36.4382 14.6536Z" fill="white"/>
</svg>
